# xmcd
#
# Track frame offsets: 
#        187
#        20255
#        32435
#        56992
#        84767
#        99352
#        115932
#        131637
#        150637
#        167155
#
# Disc length: 2467 seconds
#
# Revision: 0
# Processed by: cddbd v1.5.1PL0 Copyright (c) Steve Scherf et al.
# Submitted via: ExactAudioCopy v0.95a5
#
DISCID=7109a10a
DTITLE=Jesse Deane-Freeman and The St. Petersburg Flyers - Jumpin the Bl
DTITLE=ues
DYEAR=1900
DGENRE=Blues
TTITLE0=One Kiss
TTITLE1=The Girl That Radiates That Charm
TTITLE2=Burning Fire
TTITLE3=Move On Up
TTITLE4=Satellite Baby
TTITLE5=El Capitan
TTITLE6=Thing in G
TTITLE7=Too Tired
TTITLE8=Strange Things
TTITLE9=Mess Around
EXTD=Live at Johno's Blues Club, Cairns Australia
EXTT0=Johnny Guitar Watson
EXTT1=Arthur Alexander
EXTT2=Otis Span
EXTT3=Jesse Deane-Freeman
EXTT4=Roosevelt Sykes
EXTT5=Pete Chapman
EXTT6=Jesse Deane-Freeman
EXTT7=Johnny Guitar Watson
EXTT8=Jesse Deane-Freeman
EXTT9=Ray Charles
PLAYORDER=
